<svg xmlns="http://www.w3.org/2000/svg" viewBox="0 0 64 64" width="64" height="64">
  <defs>
    <linearGradient id="bg" x1="0%" y1="0%" x2="100%" y2="100%">
      <stop offset="0%" stop-color="hsl(187,72%,28%)"/>
      <stop offset="100%" stop-color="hsl(175,55%,33%)"/>
    </linearGradient>
    <linearGradient id="coral" x1="0%" y1="0%" x2="100%" y2="100%">
      <stop offset="0%" stop-color="hsl(14,88%,62%)"/>
      <stop offset="100%" stop-color="hsl(355,78%,62%)"/>
    </linearGradient>
  </defs>

  <!-- Circular background -->
  <circle cx="32" cy="32" r="32" fill="url(#bg)"/>

  <!-- Tooth shape (simple, bold, readable at small sizes) -->
  <path d="
    M22 18
    C22 14 26 12 32 12
    C38 12 42 14 42 18
    C42 22 40 24 40 28
    L38 44
    C38 46 36 47 35 45
    L33 38
    C32.5 36 31.5 36 31 38
    L29 45
    C28 47 26 46 26 44
    L24 28
    C24 24 22 22 22 18
    Z
  " fill="white" opacity="0.95"/>

  <!-- Small coral heart dot (brand accent) -->
  <circle cx="44" cy="16" r="7" fill="url(#coral)"/>
  <path d="M44 20 C44 20 40 17 40 15 C40 13.3 41.3 12 43 12.3 C43.6 12.4 44 12.8 44 12.8 C44 12.8 44.4 12.4 45 12.3 C46.7 12 48 13.3 48 15 C48 17 44 20 44 20Z" fill="white" transform="scale(0.85) translate(6.5,3)"/>
</svg>